<svg xmlns="http://www.w3.org/2000/svg" width="56.635" height="48.441" viewBox="0 0 56.635 48.441">
  <g id="Layer_2" data-name="Layer 2" transform="translate(-1.933 -10.116)">
    <path id="Path_29135" data-name="Path 29135" d="M7.507,52.949H52.136a5.993,5.993,0,0,0,5.123-9.119L34.944,7.376a6.009,6.009,0,0,0-10.245,0L2.384,43.83a5.993,5.993,0,0,0,5.123,9.119Z" transform="translate(0.429 5.608)" fill="#d6d6d6"/>
    <path id="Path_29136" data-name="Path 29136" d="M13.693,28.354A2.7,2.7,0,0,1,11,25.66V12.193a2.693,2.693,0,0,1,5.387,0V25.66a2.7,2.7,0,0,1-2.693,2.693Z" transform="translate(16.557 14.024)"/>
    <circle id="Ellipse_634" data-name="Ellipse 634" cx="3.367" cy="3.367" r="3.367" transform="translate(26.883 44.437)"/>
  </g>
</svg>
